<svg xmlns:dc="http://purl.org/dc/elements/1.1/" xmlns:cc="http://creativecommons.org/ns#" xmlns:rdf="http://www.w3.org/1999/02/22-rdf-syntax-ns#" xmlns:svg="http://www.w3.org/2000/svg" xmlns="http://www.w3.org/2000/svg" viewBox="0 0 180 180"><metadata><rdf:RDF><cc:Work><dc:format>image/svg+xml</dc:format><dc:type rdf:resource="http://purl.org/dc/dcmitype/StillImage"/><dc:title>Bottts</dc:title><dc:creator><cc:Agent><dc:title>Pablo Stanley</dc:title></cc:Agent></dc:creator><dc:source>https://bottts.com/</dc:source><cc:license rdf:resource="https://bottts.com/"/><dc:contributor><cc:Agent><dc:title>Florian Körner</dc:title></cc:Agent></dc:contributor></cc:Work></rdf:RDF></metadata><mask id="avatarsRadiusMask"><rect width="180" height="180" rx="0" ry="0" x="0" y="0" fill="#fff"/></mask><g mask="url(#avatarsRadiusMask)"><g transform="translate(0, 66)"><path fill-rule="evenodd" clip-rule="evenodd" d="M134.436 10.184C134 11.0397 134 12.1598 134 14.4V61.6C134 63.8402 134 64.9603 134.436 65.816C134.819 66.5686 135.431 67.1805 136.184 67.564C137.04 68 138.16 68 140.4 68H163.6C165.84 68 166.96 68 167.816 67.564C168.569 67.1805 169.181 66.5686 169.564 65.816C170 64.9603 170 63.8402 170 61.6V52.9944C171.35 52.9761 172.161 52.8979 172.816 52.564C173.569 52.1805 174.181 51.5686 174.564 50.816C175 49.9603 175 48.8402 175 46.6V29.4C175 27.1598 175 26.0397 174.564 25.184C174.181 24.4314 173.569 23.8195 172.816 23.436C172.161 23.1021 171.35 23.0239 170 23.0056V14.4C170 12.1598 170 11.0397 169.564 10.184C169.181 9.43139 168.569 8.81947 167.816 8.43597C166.96 8 165.84 8 163.6 8H140.4C138.16 8 137.04 8 136.184 8.43597C135.431 8.81947 134.819 9.43139 134.436 10.184ZM20.436 17.184C20 18.0397 20 19.1598 20 21.4V31H16.4C14.1598 31 13.0397 31 12.184 31.436C11.4314 31.8195 10.8195 32.4314 10.436 33.184C10 34.0397 10 35.1598 10 37.4V54.6C10 56.8402 10 57.9603 10.436 58.816C10.8195 59.5686 11.4314 60.1805 12.184 60.564C13.0397 61 14.1598 61 16.4 61H39.6C41.8402 61 42.9603 61 43.816 60.564C44.5686 60.1805 45.1805 59.5686 45.564 58.816C46 57.9603 46 56.8402 46 54.6V38.6V37.4V21.4C46 19.1598 46 18.0397 45.564 17.184C45.1805 16.4314 44.5686 15.8195 43.816 15.436C42.9603 15 41.8402 15 39.6 15H26.4C24.1598 15 23.0397 15 22.184 15.436C21.4314 15.8195 20.8195 16.4314 20.436 17.184Z" fill="#0076DE"/><mask id="sidesSquareAssymetricMask0" mask-type="alpha" maskUnits="userSpaceOnUse" x="10" y="8" width="165" height="60"><path fill-rule="evenodd" clip-rule="evenodd" d="M134.436 10.184C134 11.0397 134 12.1598 134 14.4V61.6C134 63.8402 134 64.9603 134.436 65.816C134.819 66.5686 135.431 67.1805 136.184 67.564C137.04 68 138.16 68 140.4 68H163.6C165.84 68 166.96 68 167.816 67.564C168.569 67.1805 169.181 66.5686 169.564 65.816C170 64.9603 170 63.8402 170 61.6V52.9944C171.35 52.9761 172.161 52.8979 172.816 52.564C173.569 52.1805 174.181 51.5686 174.564 50.816C175 49.9603 175 48.8402 175 46.6V29.4C175 27.1598 175 26.0397 174.564 25.184C174.181 24.4314 173.569 23.8195 172.816 23.436C172.161 23.1021 171.35 23.0239 170 23.0056V14.4C170 12.1598 170 11.0397 169.564 10.184C169.181 9.43139 168.569 8.81947 167.816 8.43597C166.96 8 165.84 8 163.6 8H140.4C138.16 8 137.04 8 136.184 8.43597C135.431 8.81947 134.819 9.43139 134.436 10.184ZM20.436 17.184C20 18.0397 20 19.1598 20 21.4V31H16.4C14.1598 31 13.0397 31 12.184 31.436C11.4314 31.8195 10.8195 32.4314 10.436 33.184C10 34.0397 10 35.1598 10 37.4V54.6C10 56.8402 10 57.9603 10.436 58.816C10.8195 59.5686 11.4314 60.1805 12.184 60.564C13.0397 61 14.1598 61 16.4 61H39.6C41.8402 61 42.9603 61 43.816 60.564C44.5686 60.1805 45.1805 59.5686 45.564 58.816C46 57.9603 46 56.8402 46 54.6V38.6V37.4V21.4C46 19.1598 46 18.0397 45.564 17.184C45.1805 16.4314 44.5686 15.8195 43.816 15.436C42.9603 15 41.8402 15 39.6 15H26.4C24.1598 15 23.0397 15 22.184 15.436C21.4314 15.8195 20.8195 16.4314 20.436 17.184Z" fill="white"/></mask><g mask="url(#sidesSquareAssymetricMask0)"><rect width="180" height="76" fill="#78909C"/><rect y="47" width="180" height="29" fill="black" fill-opacity="0.1"/><path fill-rule="evenodd" clip-rule="evenodd" d="M161 25C163.761 25 166 22.7614 166 20C166 17.2386 163.761 15 161 15C158.239 15 156 17.2386 156 20C156 22.7614 158.239 25 161 25Z" fill="white" fill-opacity="0.6"/><path fill-rule="evenodd" clip-rule="evenodd" d="M161 41C163.761 41 166 38.7614 166 36C166 33.2386 163.761 31 161 31C158.239 31 156 33.2386 156 36C156 38.7614 158.239 41 161 41Z" fill="white" fill-opacity="0.6"/></g></g><g transform="translate(41, 0)"><g filter="url(#topGlowingBulb02Filter0)"><path fill-rule="evenodd" clip-rule="evenodd" d="M30 33C30 21.9543 38.9543 13 50 13V13C61.0457 13 70 21.9543 70 33V44H30V33Z" fill="white" fill-opacity="0.3"/></g><path fill-rule="evenodd" clip-rule="evenodd" d="M50 36C52.2091 36 54 35.028 54 31.7143C54 28.4006 52.2091 24 50 24C47.7909 24 46 28.4006 46 31.7143C46 35.028 47.7909 36 50 36Z" fill="white" fill-opacity="0.6"/><path d="M50 14.5C49.4477 14.5 49 14.9477 49 15.5C49 16.0523 49.4477 16.5 50 16.5V14.5ZM61.6941 21.6875C62.0649 22.0968 62.6973 22.1281 63.1066 21.7573C63.5159 21.3865 63.5471 20.7541 63.1763 20.3448L61.6941 21.6875ZM65.7595 24.0473C65.5035 23.5579 64.8993 23.3686 64.4099 23.6246C63.9205 23.8806 63.7313 24.4848 63.9873 24.9742L65.7595 24.0473ZM65.4248 28.9559C65.5404 29.4959 66.0719 29.84 66.6119 29.7244C67.152 29.6088 67.4961 29.0773 67.3805 28.5373L65.4248 28.9559ZM50 16.5C54.6375 16.5 58.8065 18.4999 61.6941 21.6875L63.1763 20.3448C59.9256 16.7563 55.2256 14.5 50 14.5V16.5ZM63.9873 24.9742C64.6357 26.2139 65.1239 27.5501 65.4248 28.9559L67.3805 28.5373C67.0411 26.9518 66.4904 25.4448 65.7595 24.0473L63.9873 24.9742Z" fill="white"/><rect x="20" y="36" width="60" height="16" rx="1" fill="#78909C"/><defs><filter id="topGlowingBulb02Filter0" x="22" y="5" width="56" height="47" filterUnits="userSpaceOnUse" color-interpolation-filters="sRGB"><feFlood flood-opacity="0" result="BackgroundImageFix"/><feColorMatrix in="SourceAlpha" type="matrix" values="0 0 0 0 0 0 0 0 0 0 0 0 0 0 0 0 0 0 127 0"/><feOffset/><feGaussianBlur stdDeviation="4"/><feColorMatrix type="matrix" values="0 0 0 0 1 0 0 0 0 1 0 0 0 0 1 0 0 0 0.5 0"/><feBlend mode="normal" in2="BackgroundImageFix" result="effect1_dropShadow"/><feBlend mode="normal" in="SourceGraphic" in2="effect1_dropShadow" result="shape"/><feColorMatrix in="SourceAlpha" type="matrix" values="0 0 0 0 0 0 0 0 0 0 0 0 0 0 0 0 0 0 127 0" result="hardAlpha"/><feOffset/><feGaussianBlur stdDeviation="2"/><feComposite in2="hardAlpha" operator="arithmetic" k2="-1" k3="1"/><feColorMatrix type="matrix" values="0 0 0 0 1 0 0 0 0 1 0 0 0 0 1 0 0 0 0.5 0"/><feBlend mode="normal" in2="shape" result="effect2_innerShadow"/></filter></defs></g><g transform="translate(25, 44)"><path fill-rule="evenodd" clip-rule="evenodd" d="M0 102V68.8517C0 64.3169 0.77112 59.8152 2.28039 55.5389L19.7614 12.0092C22.3014 4.81263 29.1036 0 36.7353 0L93.2647 0C100.896 0 107.699 4.81263 110.239 12.0092L127.72 55.5389C129.229 59.8152 130 64.3169 130 68.8517V102C130 111.941 121.941 120 112 120H18C8.05887 120 0 111.941 0 102Z" fill="#0076DE"/><mask id="faceSquareMask0" mask-type="alpha" maskUnits="userSpaceOnUse" x="0" y="0" width="130" height="120"><path fill-rule="evenodd" clip-rule="evenodd" d="M0 102V68.8517C0 64.3169 0.77112 59.8152 2.28039 55.5389L19.7614 12.0092C22.3014 4.81263 29.1036 0 36.7353 0L93.2647 0C100.896 0 107.699 4.81263 110.239 12.0092L127.72 55.5389C129.229 59.8152 130 64.3169 130 68.8517V102C130 111.941 121.941 120 112 120H18C8.05887 120 0 111.941 0 102Z" fill="white"/></mask><g mask="url(#faceSquareMask0)"><rect x="-2" y="-2" width="134" height="124" fill="#546E7A"/><path fill-rule="evenodd" clip-rule="evenodd" d="M120 130.649C116.812 113.308 110.453 128.073 95.1523 125.017C88.3923 123.666 93.8542 117.769 88.8124 115.213C84.5536 113.054 78.7499 114.793 73.8715 113.397C66.8312 111.382 66.9237 107.282 60.3639 106.669C54.1604 106.09 47.6616 107.999 41.4049 107.282C29.5967 105.928 34.4383 88.0585 25.5835 84.9025C16.7287 81.7465 2.15043 87.1967 0.242157 96.1317C-1.61816 104.842 10.8129 137.252 10.8129 137.252H120" fill="black" fill-opacity="0.2"/><path fill-rule="evenodd" clip-rule="evenodd" d="M156 122.767C104.757 122.767 99.4219 96.9746 74.2092 85.1582C48.9964 73.3418 26.9059 103.905 18.4298 74.2122C9.9537 44.5195 10.0005 137.072 10.0005 137.072H156V122.767Z" fill="black" fill-opacity="0.1"/><path fill-rule="evenodd" clip-rule="evenodd" d="M161.575 9.17587C149.64 8.20079 156.546 19.9843 151.83 19.9843C144.863 19.9843 149.727 12.0062 141.247 12.2048C139.028 12.2568 136.303 14.1443 136.135 16.709C135.773 22.2193 139.852 31.7253 134.297 31.9953C129.117 32.247 133.193 22.3562 132.652 15.7593C132.343 11.9871 128.47 9.00745 125.684 9.00745C118.113 9.00745 123.998 24.7147 118.549 24.7147C113.1 24.7147 117.341 15.6639 113.467 10.8715C108.964 5.29973 94.1677 2.55906 104.718 0H161.867" fill="black" fill-opacity="0.4"/></g></g><g transform="translate(52, 124)"><rect x="4" y="4" width="68" height="24" rx="5" fill="black" fill-opacity="0.2"/><rect x="8" y="8" width="60" height="16" rx="2" fill="black" fill-opacity="0.8"/><path d="M9 17H20L22 13L25 20L29 12L31 21L34 10L37 20L40 17H55L58 13L60 20L63 17H67" stroke="#4EFAC9" stroke-width="2" stroke-linecap="round" stroke-linejoin="round"/></g><g transform="translate(38, 76)"><path fill-rule="evenodd" clip-rule="evenodd" d="M53 0C87.7469 0 102.001 17.4742 102 31C101.999 44.5258 82.4108 48 53 48C23.9528 48 2 44.5258 2 31C2 17.4742 17.1142 0 53 0Z" fill="black" fill-opacity="0.8"/><path fill-rule="evenodd" clip-rule="evenodd" d="M28.8179 34.654C22.2912 33.3001 17.5833 28.3121 18.3026 23.513C19.0218 18.7139 24.8959 15.9211 31.4226 17.275C37.9493 18.629 42.6572 23.617 41.9379 28.416C41.2187 33.2151 35.3446 36.0079 28.8179 34.654Z" fill="#25A6F5"/><path fill-rule="evenodd" clip-rule="evenodd" d="M75.4226 34.654C68.8959 36.0079 63.0218 33.2151 62.3026 28.416C61.5833 23.617 66.2912 18.629 72.8179 17.275C79.3446 15.9211 85.2187 18.7139 85.9379 23.513C86.6572 28.3121 81.9493 33.3001 75.4226 34.654Z" fill="#25A6F5"/></g></g></svg>