<svg xmlns:dc="http://purl.org/dc/elements/1.1/" xmlns:cc="http://creativecommons.org/ns#" xmlns:rdf="http://www.w3.org/1999/02/22-rdf-syntax-ns#" xmlns:svg="http://www.w3.org/2000/svg" xmlns="http://www.w3.org/2000/svg" viewBox="0 0 180 180"><metadata><rdf:RDF><cc:Work><dc:format>image/svg+xml</dc:format><dc:type rdf:resource="http://purl.org/dc/dcmitype/StillImage"/><dc:title>Bottts</dc:title><dc:creator><cc:Agent><dc:title>Pablo Stanley</dc:title></cc:Agent></dc:creator><dc:source>https://bottts.com/</dc:source><cc:license rdf:resource="https://bottts.com/"/><dc:contributor><cc:Agent><dc:title>Florian Körner</dc:title></cc:Agent></dc:contributor></cc:Work></rdf:RDF></metadata><mask id="avatarsRadiusMask"><rect width="180" height="180" rx="0" ry="0" x="0" y="0" fill="#fff"/></mask><g mask="url(#avatarsRadiusMask)"><g transform="translate(0, 66)"><path fill-rule="evenodd" clip-rule="evenodd" d="M13 11H11V31H12.4C10.1598 31 9.03969 31 8.18404 31.436C7.43139 31.8195 6.81947 32.4314 6.43597 33.184C6 34.0397 6 35.1598 6 37.4V38.6C6 40.8402 6 41.9603 6.43597 42.816C6.81947 43.5686 7.43139 44.1805 8.18404 44.564C9.03969 45 10.1598 45 12.4 45H18V55.6C18 57.8402 18 58.9603 18.436 59.816C18.8195 60.5686 19.4314 61.1805 20.184 61.564C21.0397 62 22.1598 62 24.4 62H47.6C49.8402 62 50.9603 62 51.816 61.564C52.5686 61.1805 53.1805 60.5686 53.564 59.816C54 58.9603 54 57.8402 54 55.6V20.4C54 18.1598 54 17.0397 53.564 16.184C53.1805 15.4314 52.5686 14.8195 51.816 14.436C50.9603 14 49.8402 14 47.6 14H24.4C22.1598 14 21.0397 14 20.184 14.436C19.4314 14.8195 18.8195 15.4314 18.436 16.184C18 17.0397 18 18.1598 18 20.4V31H13V11ZM126 34.4C126 32.1598 126 31.0397 126.436 30.184C126.819 29.4314 127.431 28.8195 128.184 28.436C129.04 28 130.16 28 132.4 28H155.6C157.84 28 158.96 28 159.816 28.436C160.569 28.8195 161.181 29.4314 161.564 30.184C162 31.0397 162 32.1598 162 34.4V45.6C162 47.8402 162 48.9603 161.564 49.816C161.181 50.5686 160.569 51.1805 159.816 51.564C158.96 52 157.84 52 155.6 52H132.4C130.16 52 129.04 52 128.184 51.564C127.431 51.1805 126.819 50.5686 126.436 49.816C126 48.9603 126 47.8402 126 45.6V34.4Z" fill="#0076DE"/><mask id="sidesAntenna01Mask0" mask-type="alpha" maskUnits="userSpaceOnUse" x="6" y="11" width="156" height="51"><path fill-rule="evenodd" clip-rule="evenodd" d="M13 11H11V31H12.4C10.1598 31 9.03969 31 8.18404 31.436C7.43139 31.8195 6.81947 32.4314 6.43597 33.184C6 34.0397 6 35.1598 6 37.4V38.6C6 40.8402 6 41.9603 6.43597 42.816C6.81947 43.5686 7.43139 44.1805 8.18404 44.564C9.03969 45 10.1598 45 12.4 45H18V55.6C18 57.8402 18 58.9603 18.436 59.816C18.8195 60.5686 19.4314 61.1805 20.184 61.564C21.0397 62 22.1598 62 24.4 62H47.6C49.8402 62 50.9603 62 51.816 61.564C52.5686 61.1805 53.1805 60.5686 53.564 59.816C54 58.9603 54 57.8402 54 55.6V20.4C54 18.1598 54 17.0397 53.564 16.184C53.1805 15.4314 52.5686 14.8195 51.816 14.436C50.9603 14 49.8402 14 47.6 14H24.4C22.1598 14 21.0397 14 20.184 14.436C19.4314 14.8195 18.8195 15.4314 18.436 16.184C18 17.0397 18 18.1598 18 20.4V31H13V11ZM126 34.4C126 32.1598 126 31.0397 126.436 30.184C126.819 29.4314 127.431 28.8195 128.184 28.436C129.04 28 130.16 28 132.4 28H155.6C157.84 28 158.96 28 159.816 28.436C160.569 28.8195 161.181 29.4314 161.564 30.184C162 31.0397 162 32.1598 162 34.4V45.6C162 47.8402 162 48.9603 161.564 49.816C161.181 50.5686 160.569 51.1805 159.816 51.564C158.96 52 157.84 52 155.6 52H132.4C130.16 52 129.04 52 128.184 51.564C127.431 51.1805 126.819 50.5686 126.436 49.816C126 48.9603 126 47.8402 126 45.6V34.4Z" fill="white"/></mask><g mask="url(#sidesAntenna01Mask0)"><rect width="180" height="76" fill="#FFCA28"/><rect y="38" width="180" height="38" fill="black" fill-opacity="0.1"/></g><rect x="11" y="11" width="2" height="20" fill="white" fill-opacity="0.4"/><path fill-rule="evenodd" clip-rule="evenodd" d="M12 12C14.2091 12 16 10.2091 16 8C16 5.79086 14.2091 4 12 4C9.79086 4 8 5.79086 8 8C8 10.2091 9.79086 12 12 12Z" fill="#FFEA8F"/><path fill-rule="evenodd" clip-rule="evenodd" d="M13 9C14.1046 9 15 8.10457 15 7C15 5.89543 14.1046 5 13 5C11.8954 5 11 5.89543 11 7C11 8.10457 11.8954 9 13 9Z" fill="white"/></g><g transform="translate(41, 0)"><path fill-rule="evenodd" clip-rule="evenodd" d="M23 22C20.2386 22 18 24.2386 18 27V40H12C10.8954 40 10 40.8954 10 42V52H18H34H42H58H66H82H90V42C90 40.8954 89.1046 40 88 40H82V27C82 24.2386 79.7614 22 77 22H71C68.2386 22 66 24.2386 66 27V40H58V27C58 24.2386 55.7614 22 53 22H47C44.2386 22 42 24.2386 42 27V40H34V27C34 24.2386 31.7614 22 29 22H23Z" fill="#E1E6E8"/><mask id="topLightsMask0" mask-type="alpha" maskUnits="userSpaceOnUse" x="10" y="22" width="80" height="30"><path fill-rule="evenodd" clip-rule="evenodd" d="M23 22C20.2386 22 18 24.2386 18 27V40H12C10.8954 40 10 40.8954 10 42V52H18H34H42H58H66H82H90V42C90 40.8954 89.1046 40 88 40H82V27C82 24.2386 79.7614 22 77 22H71C68.2386 22 66 24.2386 66 27V40H58V27C58 24.2386 55.7614 22 53 22H47C44.2386 22 42 24.2386 42 27V40H34V27C34 24.2386 31.7614 22 29 22H23Z" fill="white"/></mask><g mask="url(#topLightsMask0)"><rect width="100" height="52" fill="#FFCA28"/><rect width="100" height="40" fill="white" fill-opacity="0.6"/><rect x="24" y="28" width="4" height="8" rx="2" fill="white" fill-opacity="0.6"/><rect x="48" y="28" width="4" height="8" rx="2" fill="white" fill-opacity="0.6"/><rect x="72" y="28" width="4" height="8" rx="2" fill="white" fill-opacity="0.6"/></g></g><g transform="translate(25, 44)"><path fill-rule="evenodd" clip-rule="evenodd" d="M0 18C0 8.05888 8.05888 0 18 0H112C121.941 0 130 8.05888 130 18V45.1483C130 49.6831 129.229 54.1848 127.72 58.4611L110.239 107.991C107.699 115.187 100.896 120 93.2647 120H36.7353C29.1036 120 22.3014 115.187 19.7614 107.991L2.28038 58.4611C0.771117 54.1848 0 49.6831 0 45.1483L0 18Z" fill="#0076DE"/><mask id="faceSquare03Mask0" mask-type="alpha" maskUnits="userSpaceOnUse" x="0" y="0" width="130" height="120"><path fill-rule="evenodd" clip-rule="evenodd" d="M0 18C0 8.05888 8.05888 0 18 0H112C121.941 0 130 8.05888 130 18V45.1483C130 49.6831 129.229 54.1848 127.72 58.4611L110.239 107.991C107.699 115.187 100.896 120 93.2647 120H36.7353C29.1036 120 22.3014 115.187 19.7614 107.991L2.28038 58.4611C0.771117 54.1848 0 49.6831 0 45.1483L0 18Z" fill="white"/></mask><g mask="url(#faceSquare03Mask0)"><rect x="-2" y="-2" width="134" height="124" fill="#FFB300"/> undefined </g></g><g transform="translate(52, 124)"><rect x="12" y="12" width="4" height="8" rx="2" fill="black" fill-opacity="0.6"/><rect x="36" y="12" width="4" height="8" rx="2" fill="black" fill-opacity="0.6"/><rect x="24" y="12" width="4" height="8" rx="2" fill="black" fill-opacity="0.6"/><rect x="48" y="12" width="4" height="8" rx="2" fill="black" fill-opacity="0.6"/><rect x="60" y="12" width="4" height="8" rx="2" fill="black" fill-opacity="0.6"/></g><g transform="translate(38, 76)"><path fill-rule="evenodd" clip-rule="evenodd" d="M25 27.2L30.5 32.7C31 33.1 31.7 33.1 32.1 32.7L33.7 31.1C34.1 30.6 34.1 29.9 33.7 29.5L28.2 24L33.7 18.5C34.1 18 34.1 17.3 33.7 16.9L32.1 15.3C31.6 14.9 30.9 14.9 30.5 15.3L25 20.8L19.5 15.3C19 14.9 18.3 14.9 17.9 15.3L16.3 16.9C15.9 17.3 15.9 18 16.3 18.5L21.8 24L16.3 29.5C15.9 30 15.9 30.7 16.3 31.1L17.9 32.7C18.4 33.1 19.1 33.1 19.5 32.7L25 27.2Z" fill="black" fill-opacity="0.8"/><path fill-rule="evenodd" clip-rule="evenodd" d="M79 27.2L84.5 32.7C85 33.1 85.7 33.1 86.1 32.7L87.7 31.1C88.1 30.6 88.1 29.9 87.7 29.5L82.2 24L87.7 18.5C88.1 18 88.1 17.3 87.7 16.9L86.1 15.3C85.6 14.9 84.9 14.9 84.5 15.3L79 20.8L73.5 15.3C73 14.9 72.3 14.9 71.9 15.3L70.3 16.9C69.9 17.3 69.9 18 70.3 18.5L75.8 24L70.3 29.5C69.9 30 69.9 30.7 70.3 31.1L71.9 32.7C72.4 33.1 73.1 33.1 73.5 32.7L79 27.2Z" fill="black" fill-opacity="0.8"/></g></g></svg>